<svg xmlns="http://www.w3.org/2000/svg" width="256" height="256" viewBox="0 0 100 100"><rect width="100" height="100" rx="20" fill="#6ed6e7"></rect><path d="M26.45 67.60L12.68 67.60L12.68 17.84L26.72 17.84Q33.22 17.84 38.21 20.71Q43.20 23.58 45.92 28.88Q48.63 34.17 48.67 41.04L48.67 41.04L48.67 44.22Q48.67 51.26 45.95 56.56Q43.23 61.86 38.19 64.70Q33.15 67.53 26.45 67.60L26.45 67.60ZM26.89 23.24L19.24 23.24L19.24 62.24L26.14 62.24Q33.73 62.24 37.95 57.52Q42.17 52.80 42.17 44.09L42.17 44.09L42.17 41.18Q42.17 32.71 38.19 28.01Q34.21 23.31 26.89 23.24L26.89 23.24ZM56.08 48.80L56.08 48.80Q56.08 40.16 60.08 35.05Q64.08 29.94 70.68 29.94L70.68 29.94Q77.45 29.94 81.24 34.72L81.24 34.72L81.55 30.62L87.32 30.62L87.32 66.71Q87.32 73.89 83.07 78.03Q78.81 82.16 71.64 82.16L71.64 82.16Q67.64 82.16 63.81 80.45Q59.98 78.75 57.96 75.77L57.96 75.77L61.25 71.98Q65.31 77.00 71.19 77.00L71.19 77.00Q75.81 77.00 78.39 74.40Q80.97 71.81 80.97 67.09L80.97 67.09L80.97 63.91Q77.17 68.29 70.61 68.29L70.61 68.29Q64.12 68.29 60.10 63.06Q56.08 57.83 56.08 48.80ZM62.44 49.52L62.44 49.52Q62.44 55.78 65.00 59.35Q67.57 62.92 72.18 62.92L72.18 62.92Q78.16 62.92 80.97 57.49L80.97 57.49L80.97 40.60Q78.06 35.30 72.25 35.30L72.25 35.30Q67.64 35.30 65.04 38.89Q62.44 42.48 62.44 49.52Z" fill="#fff"></path></svg>